<svg id="visual" viewBox="0 0 1920 1080" width="1920" height="1080" xmlns="http://www.w3.org/2000/svg" xmlns:xlink="http://www.w3.org/1999/xlink" version="1.1"><rect x="0" y="0" width="1920" height="1080" fill="#22333B"></rect><defs><linearGradient id="grad1_0" x1="43.8%" y1="0%" x2="100%" y2="100%"><stop offset="14.444444444444446%" stop-color="#22333b" stop-opacity="1"></stop><stop offset="85.55555555555554%" stop-color="#22333b" stop-opacity="1"></stop></linearGradient></defs><defs><linearGradient id="grad2_0" x1="0%" y1="0%" x2="56.3%" y2="100%"><stop offset="14.444444444444446%" stop-color="#22333b" stop-opacity="1"></stop><stop offset="85.55555555555554%" stop-color="#22333b" stop-opacity="1"></stop></linearGradient></defs><g transform="translate(1920, 0)"><path d="M0 756C-71.4 678.2 -142.7 600.4 -238 574.7C-333.3 548.9 -452.6 575.1 -534.6 534.6C-616.6 494.1 -661.3 386.8 -692 286.6C-722.7 186.4 -739.3 93.2 -756 0L0 0Z" fill="#f0f0f0"></path></g><g transform="translate(0, 1080)"><path d="M0 -756C75 -688.8 150.1 -621.5 246.4 -595C342.8 -568.4 460.5 -582.6 534.6 -534.6C608.7 -486.6 639.2 -376.5 668.9 -277.1C698.5 -177.6 727.3 -88.8 756 0L0 0Z" fill="#f0f0f0"></path></g></svg>