<svg id="visual" viewBox="0 0 1080 1920" width="1080" height="1920" xmlns="http://www.w3.org/2000/svg" xmlns:xlink="http://www.w3.org/1999/xlink" version="1.1"><rect x="0" y="0" width="1080" height="1920" fill="#22333B"></rect><defs><linearGradient id="grad1_0" x1="0%" y1="0%" x2="100%" y2="100%"><stop offset="30%" stop-color="#22333b" stop-opacity="1"></stop><stop offset="70%" stop-color="#22333b" stop-opacity="1"></stop></linearGradient></defs><defs><linearGradient id="grad2_0" x1="0%" y1="0%" x2="100%" y2="100%"><stop offset="30%" stop-color="#22333b" stop-opacity="1"></stop><stop offset="70%" stop-color="#22333b" stop-opacity="1"></stop></linearGradient></defs><g transform="translate(1080, 0)"><path d="M0 756C-101.8 748.9 -203.6 741.7 -289.3 698.5C-375 655.2 -444.6 575.9 -497.8 497.8C-551 419.7 -587.9 343 -628.2 260.2C-668.5 177.5 -712.3 88.7 -756 0L0 0Z" fill="#f0f0f0"></path></g><g transform="translate(0, 1920)"><path d="M0 -756C85 -713 170.1 -670 265.2 -640.2C360.3 -610.5 465.6 -594.1 534.6 -534.6C603.5 -475.1 636.2 -372.6 667 -276.3C697.9 -180 726.9 -90 756 0L0 0Z" fill="#f0f0f0"></path></g></svg>