<?xml version="1.0" encoding="UTF-8"?>
<svg version="1.1" xmlns="http://www.w3.org/2000/svg" width="3290" height="869">
<path d="M0 0 C1.58320137 -0.00706903 3.16640245 -0.01420167 4.74960327 -0.02139282 C9.78229242 -0.04090811 14.8149328 -0.04608542 19.84765625 -0.046875 C20.70744961 -0.04716957 21.56724297 -0.04746414 22.45309067 -0.04776764 C49.37845329 -0.04925666 76.11532183 0.29921415 102.91015625 3.203125 C104.30968536 3.35231384 104.30968536 3.35231384 105.73748779 3.5045166 C191.12774923 12.6631158 274.14348675 33.39988705 387.10864258 81.27636719 C393.01441202 83.82016897 398.92462894 86.35354357 404.83525085 88.88604736 C405.8061659 89.30210047 406.77708095 89.71815357 407.77741766 90.14681435 C410.15497761 91.16563027 412.53255764 92.1843993 414.91015625 93.203125 C414.95601698 143.71818997 414.99121764 194.23325282 415.01228691 244.74833455 C415.01478807 250.72333635 415.01737674 256.69833811 415.02001953 262.67333984 C415.02080646 264.4574786 415.02080646 264.4574786 415.02160929 266.27766056 C415.03029224 285.49155195 415.0460505 304.70543126 415.06446184 323.9193155 C415.08321977 343.66075694 415.09428539 363.40219209 415.09833324 383.14364207 C415.10106612 395.30760066 415.10967149 407.47152513 415.12598918 419.63547321 C415.13662895 427.99698775 415.1397412 436.35848487 415.137159 444.72000568 C415.1358885 449.53123309 415.13772025 454.34240122 415.1485672 459.15361786 C415.2034676 484.78617182 414.70622145 510.12635655 410.72265625 535.515625 C410.56351242 536.53805801 410.56351242 536.53805801 410.40115356 537.58114624 C404.70574802 573.8231717 393.712023 609.09672341 377.91015625 642.203125 C377.51151367 643.05648437 377.11287109 643.90984375 376.70214844 644.7890625 C366.8793987 665.75732628 354.75353493 685.65260034 340.91015625 704.203125 C340.47896484 704.78449219 340.04777344 705.36585938 339.60351562 705.96484375 C330.69121397 717.93005365 320.97008935 729.19539656 310.91015625 740.203125 C309.98665042 741.2314757 309.06349129 742.26013782 308.140625 743.2890625 C301.12334358 751.06377216 293.72958191 758.24132821 285.91015625 765.203125 C285.34490234 765.71311035 284.77964844 766.2230957 284.19726562 766.74853516 C213.16329129 830.74687735 118.24234594 865.39874354 23.03515625 865.453125 C21.43962418 865.45413712 21.43962418 865.45413712 19.81185913 865.45516968 C-36.31601916 865.39882009 -92.09375249 853.97204686 -143.08984375 830.203125 C-144.82018461 829.41768694 -146.55065694 828.63253847 -148.28125 827.84765625 C-181.36212027 812.65739852 -211.74483374 792.17440001 -239.08984375 768.203125 C-239.97929687 767.42582031 -240.86875 766.64851562 -241.78515625 765.84765625 C-248.32458274 759.98825559 -254.58046649 753.83858888 -260.81253052 747.65567017 C-262.23424905 746.24585877 -263.65991163 744.84002821 -265.08569336 743.43432617 C-271.1927055 737.33494712 -276.71235738 730.94841837 -282.08984375 724.203125 C-282.95334028 723.17566596 -283.82173389 722.15225736 -284.69921875 721.13671875 C-328.46980429 670.09766006 -356.16240745 605.19880541 -367.08984375 539.203125 C-367.31945801 537.83510742 -367.31945801 537.83510742 -367.55371094 536.43945312 C-372.25801673 507.66390172 -372.38928466 478.53688573 -372.32197499 449.46423876 C-372.31317638 444.67605507 -372.31627199 439.88787519 -372.31777954 435.09968567 C-372.31881824 426.84267422 -372.31264938 418.58569486 -372.30130386 410.32869148 C-372.28491187 398.39108245 -372.27982701 386.45348862 -372.27732788 374.51586955 C-372.27297202 355.13858202 -372.25972077 335.76131151 -372.24072266 316.3840332 C-372.22230883 297.58292729 -372.20817941 278.78182603 -372.19970703 259.98071289 C-372.19918158 258.81795505 -372.19865614 257.65519721 -372.19811477 256.45720429 C-372.19550432 250.62283805 -372.19297699 244.78847179 -372.19049096 238.9541055 C-372.16982427 190.70376691 -372.13465696 142.45344679 -372.08984375 94.203125 C-369.84510839 93.07583113 -367.59984983 91.94960115 -365.35427856 90.82397461 C-364.40585319 90.34747593 -364.40585319 90.34747593 -363.43826771 89.86135101 C-359.11483882 87.69553598 -354.77907976 85.66191593 -350.33203125 83.765625 C-349.34416878 83.34245499 -349.34416878 83.34245499 -348.33634949 82.91073608 C-346.21449173 82.00347308 -344.08992304 81.10281366 -341.96484375 80.203125 C-340.43541967 79.55300492 -338.90604254 78.90277441 -337.37670898 78.25244141 C-334.20125607 76.90360376 -331.02424522 75.55851757 -327.84619141 74.21582031 C-324.74161195 72.9036872 -321.63970872 71.58557412 -318.54052734 70.26074219 C-241.05476289 37.14497576 -159.96728253 14.70767698 0 0 Z M82.91015625 126.203125 C91.31065236 188.84682455 125.90056153 250.64307353 175.80078125 289.83984375 C177.33992187 291.00966797 177.33992187 291.00966797 178.91015625 292.203125 C179.57466797 292.71697754 180.23917969 293.23083008 180.92382812 293.76025391 C208.8202423 315.27140705 253.19122461 343.203125 289.91015625 343.203125 C289.91015625 287.763125 289.91015625 232.323125 289.91015625 175.203125 C269.11273837 167.118167 269.11273837 167.118167 248.09765625 159.703125 C247.42892487 159.4811142 246.76019348 159.25910339 246.07119751 159.03036499 C195.29961525 142.25272741 136.7715814 126.203125 82.91015625 126.203125 Z M-246.08984375 175.203125 C-246.18676438 177.34205767 -246.21171178 179.48425467 -246.21009827 181.62538147 C-246.2113799 182.64346764 -246.2113799 182.64346764 -246.21268743 183.68212122 C-246.21434416 185.97308426 -246.20881775 188.26397526 -246.20336914 190.55493164 C-246.20308728 192.19052631 -246.20324497 193.8261211 -246.20381165 195.4617157 C-246.20409968 199.91607086 -246.19820199 204.37039934 -246.19123769 208.82474828 C-246.18500514 213.47458974 -246.18440043 218.12443174 -246.18321228 222.77427673 C-246.18009867 231.58574202 -246.17188488 240.39719497 -246.16186279 249.20865482 C-246.15070257 259.23750608 -246.14519143 269.26635791 -246.14016736 279.29521382 C-246.12970229 299.93119111 -246.11210228 320.56715728 -246.08984375 341.203125 C-238.87123688 340.34688482 -232.49384257 338.64590661 -225.58984375 336.328125 C-224.40656494 335.93101318 -223.22328613 335.53390137 -222.00415039 335.12475586 C-188.6013527 323.61323344 -157.45045845 305.59059386 -131.55859375 281.484375 C-129.50940293 279.59081892 -127.42244095 277.7971464 -125.27734375 276.015625 C-84.36456039 240.30077723 -56.26910514 184.44007191 -48.08984375 131.203125 C-48.08984375 129.883125 -48.08984375 128.563125 -48.08984375 127.203125 C-84.26532541 126.49043154 -222.70576417 151.81904542 -246.08984375 175.203125 Z M16.91015625 298.203125 C15.97250059 299.44718903 15.08066055 300.7257935 14.20703125 302.015625 C13.6454834 302.83595215 13.08393555 303.6562793 12.50537109 304.50146484 C11.59198975 305.83878662 11.59198975 305.83878662 10.66015625 307.203125 C4.61770854 315.93902593 -1.73396052 324.27686983 -8.57666016 332.39746094 C-9.97898773 334.07084182 -11.35558601 335.76185964 -12.7265625 337.4609375 C-19.38905715 345.60206977 -26.73990499 353.06413978 -34.15234375 360.515625 C-34.65931793 361.02786621 -35.16629211 361.54010742 -35.68862915 362.06787109 C-42.48553817 368.91932024 -49.52740842 375.18848832 -57.08984375 381.203125 C-58.11740432 382.06650071 -59.14080439 382.93490751 -60.15625 383.8125 C-71.45509659 393.50227767 -83.66913658 402.02136116 -96.08984375 410.203125 C-94.80821307 414.04801704 -93.42922691 414.51158641 -90.02734375 416.640625 C-78.12525259 424.34864594 -66.94333649 433.08867545 -56.08984375 442.203125 C-55.09597656 443.01136719 -54.10210937 443.81960938 -53.078125 444.65234375 C-45.18062121 451.15715151 -37.88098514 458.22358208 -30.65234375 465.453125 C-30.17985199 465.92471039 -29.70736023 466.39629578 -29.22055054 466.88217163 C-23.6254996 472.47843923 -18.19037146 478.1514629 -13.08984375 484.203125 C-12.57977783 484.80640625 -12.06971191 485.4096875 -11.54418945 486.03125 C-1.34198051 498.21182164 8.1777924 510.92658141 16.91015625 524.203125 C21.068158 520.3233259 24.16516387 516.14960293 27.34765625 511.453125 C36.09860938 498.81530278 45.9287633 487.10091717 56.421875 475.87890625 C58.68331681 473.44705752 60.85961631 470.96144351 63.03515625 468.453125 C72.97420544 457.38788858 84.2521123 447.40771055 95.91015625 438.203125 C97.00055339 437.30041365 98.08897736 436.39531543 99.17578125 435.48828125 C107.47453698 428.62389247 116.13490063 422.55944908 125.20458984 416.74731445 C126.0755127 416.18359131 126.94643555 415.61986816 127.84375 415.0390625 C128.62806396 414.53938965 129.41237793 414.0397168 130.22045898 413.52490234 C130.77805908 413.08871582 131.33565918 412.6525293 131.91015625 412.203125 C131.91015625 411.543125 131.91015625 410.883125 131.91015625 410.203125 C130.41266608 408.94699787 130.41266608 408.94699787 128.4296875 407.734375 C127.68404541 407.25073486 126.93840332 406.76709473 126.17016602 406.26879883 C125.36248779 405.75212646 124.55480957 405.2354541 123.72265625 404.703125 C115.80803193 399.53532716 108.28736133 394.11271634 100.91015625 388.203125 C99.97945312 387.46578125 99.04875 386.7284375 98.08984375 385.96875 C92.1172118 381.17022518 86.43887193 376.11238824 80.828125 370.90234375 C78.13203211 368.4083676 75.40392941 365.95686881 72.66015625 363.515625 C66.39959221 357.88612582 60.48639966 352.02880766 55.00390625 345.63671875 C53.35275888 343.71756798 51.68518818 341.81829841 50.00390625 339.92578125 C39.47185979 328.01332094 30.03178192 315.4051914 20.94262695 302.36694336 C19.95542574 300.96210388 18.93623043 299.5798283 17.91015625 298.203125 C17.58015625 298.203125 17.25015625 298.203125 16.91015625 298.203125 Z M171.48413086 536.81787109 C170.342587 537.82254301 169.19402088 538.819254 168.04125977 539.81103516 C156.67414985 549.62462622 146.07129311 560.29538544 136.91015625 572.203125 C136.13800781 573.15832031 135.36585938 574.11351562 134.5703125 575.09765625 C97.91885601 621.12910635 81.61865195 677.14205159 79.91015625 735.203125 C138.69951052 723.06184531 195.08500479 688.94407944 231.91015625 641.203125 C232.35149902 640.64351074 232.7928418 640.08389648 233.24755859 639.50732422 C269.1046274 593.98839182 289.99148945 537.29474726 288.91015625 479.203125 C248.97373783 479.203125 200.33418443 511.35538471 171.48413086 536.81787109 Z M-246.08984375 481.203125 C-248.4100813 539.63873747 -223.23299498 599.96211741 -186.08984375 644.203125 C-185.66268066 644.71907227 -185.23551758 645.23501953 -184.79541016 645.76660156 C-175.03562813 657.5380453 -164.75598186 668.61312589 -152.73046875 678.11328125 C-151.02601862 679.46221737 -149.34634719 680.84335815 -147.69921875 682.26171875 C-120.87972049 705.24383597 -80.77540445 728.85564552 -45.08984375 733.203125 C-42.95135698 680.05776864 -62.90162113 624.74711827 -94.08984375 582.203125 C-94.51120605 581.62481934 -94.93256836 581.04651367 -95.36669922 580.45068359 C-100.69183306 573.19178386 -106.42386077 566.45531493 -112.58203125 559.8984375 C-114.59670705 557.73313174 -116.51126216 555.53682349 -118.40234375 553.265625 C-145.92098055 521.77857959 -186.30012029 499.31235526 -225.46484375 486.140625 C-226.59978271 485.7583374 -227.73472168 485.3760498 -228.90405273 484.98217773 C-234.66207672 483.1092409 -240.04826351 481.68086553 -246.08984375 481.203125 Z " fill="#FFFFFF" transform="translate(378.08984375,0.796875)"/>
<path d="M0 0 C176.65610143 0 176.65610143 0 208 29 C219.51861281 40.91002198 225.86739017 55.17512822 230 71 C230.23460938 71.88429688 230.46921875 72.76859375 230.7109375 73.6796875 C235.26538843 94.33973302 234.05032528 118.08159852 227 138 C226.65195313 139.0003125 226.30390625 140.000625 225.9453125 141.03125 C215.99565118 167.1062245 194.41005817 185.71677423 169.59765625 197.25048828 C138.79279434 210.87943144 104.9347237 209 72 209 C72 244.97 72 280.94 72 318 C48.24 318 24.48 318 0 318 C0 213.06 0 108.12 0 0 Z M72 56 C72 88.34 72 120.68 72 154 C111.07092598 155.83118251 111.07092598 155.83118251 145.06640625 138.96875 C156.29354201 125.58348232 157.12489192 109.66495197 156 93 C154.46214092 81.98492803 148.79936805 72.55743749 140.25 65.5625 C120.38192669 51.76522687 94.63402429 56 72 56 Z " fill="#FFFFFF" transform="translate(1970,91)"/>
<path d="M0 0 C2.5032139 0.00315266 5.00523234 -0.02037326 7.50830078 -0.0456543 C22.37237043 -0.10558234 36.86589624 1.55841762 50.95751953 6.50317383 C52.26813354 6.95382202 52.26813354 6.95382202 53.60522461 7.41357422 C65.87606514 11.78340996 76.44191682 17.69482941 86.27001953 26.31567383 C87.01509766 26.91766602 87.76017578 27.5196582 88.52783203 28.13989258 C109.45960582 45.53441539 119.8803214 71.96717993 123.27001953 98.31567383 C126.50848772 134.73044947 120.71781201 170.25188909 97.27001953 199.31567383 C96.34962891 200.48549805 96.34962891 200.48549805 95.41064453 201.67895508 C76.82988714 224.03144741 47.62986611 235.57096709 19.27001953 238.31567383 C16.37636265 238.46406107 13.48747696 238.50249778 10.59033203 238.51879883 C9.77869598 238.5244989 8.96705994 238.53019897 8.13082886 238.53607178 C6.41812416 238.54546568 4.70540185 238.55203326 2.99267578 238.5559082 C0.4363428 238.56551848 -2.11915122 238.59655553 -4.67529297 238.62817383 C-36.42477145 238.83318611 -66.45406614 229.60364612 -89.72998047 207.31567383 C-90.41705078 206.69176758 -91.10412109 206.06786133 -91.81201172 205.42504883 C-109.75028318 188.58359475 -119.11906711 163.35408307 -121.72998047 139.31567383 C-121.85244141 138.31407227 -121.97490234 137.3124707 -122.10107422 136.28051758 C-125.25928736 104.19151246 -119.96826813 68.43764758 -99.41748047 42.56567383 C-91.70192113 33.65698675 -83.74711882 25.59348588 -73.72998047 19.31567383 C-72.37839844 18.43975586 -72.37839844 18.43975586 -70.99951172 17.54614258 C-49.66637515 4.33168956 -24.74489959 -0.06485268 0 0 Z M-36.03857422 70.22192383 C-50.55305002 88.18903475 -52.07838252 111.67118641 -50.01904297 133.79663086 C-48.29788946 148.7956696 -43.60695701 162.83836967 -32.25341797 173.37817383 C-18.56457889 183.8884899 -3.27860593 184.48115593 13.27001953 183.31567383 C24.10267973 181.54753301 33.5599287 175.37510874 40.14501953 166.62817383 C53.16013774 146.17139712 54.29617121 118.0606871 50.08251953 94.75317383 C46.73676907 81.33890328 40.94771767 69.28832156 29.27001953 61.31567383 C7.75262575 50.61229158 -18.96579216 52.15884119 -36.03857422 70.22192383 Z " fill="#FFFFFF" transform="translate(2349.72998046875,175.684326171875)"/>
<path d="M0 0 C2.5032139 0.00315266 5.00523234 -0.02037326 7.50830078 -0.0456543 C22.37237043 -0.10558234 36.86589624 1.55841762 50.95751953 6.50317383 C52.26813354 6.95382202 52.26813354 6.95382202 53.60522461 7.41357422 C65.87606514 11.78340996 76.44191682 17.69482941 86.27001953 26.31567383 C87.01509766 26.91766602 87.76017578 27.5196582 88.52783203 28.13989258 C109.45960582 45.53441539 119.8803214 71.96717993 123.27001953 98.31567383 C126.50848772 134.73044947 120.71781201 170.25188909 97.27001953 199.31567383 C96.34962891 200.48549805 96.34962891 200.48549805 95.41064453 201.67895508 C76.82988714 224.03144741 47.62986611 235.57096709 19.27001953 238.31567383 C16.37636265 238.46406107 13.48747696 238.50249778 10.59033203 238.51879883 C9.77869598 238.5244989 8.96705994 238.53019897 8.13082886 238.53607178 C6.41812416 238.54546568 4.70540185 238.55203326 2.99267578 238.5559082 C0.4363428 238.56551848 -2.11915122 238.59655553 -4.67529297 238.62817383 C-36.42477145 238.83318611 -66.45406614 229.60364612 -89.72998047 207.31567383 C-90.41705078 206.69176758 -91.10412109 206.06786133 -91.81201172 205.42504883 C-109.75028318 188.58359475 -119.11906711 163.35408307 -121.72998047 139.31567383 C-121.85244141 138.31407227 -121.97490234 137.3124707 -122.10107422 136.28051758 C-125.25928736 104.19151246 -119.96826813 68.43764758 -99.41748047 42.56567383 C-91.70192113 33.65698675 -83.74711882 25.59348588 -73.72998047 19.31567383 C-72.37839844 18.43975586 -72.37839844 18.43975586 -70.99951172 17.54614258 C-49.66637515 4.33168956 -24.74489959 -0.06485268 0 0 Z M-36.03857422 70.22192383 C-50.55305002 88.18903475 -52.07838252 111.67118641 -50.01904297 133.79663086 C-48.29788946 148.7956696 -43.60695701 162.83836967 -32.25341797 173.37817383 C-18.56457889 183.8884899 -3.27860593 184.48115593 13.27001953 183.31567383 C24.10267973 181.54753301 33.5599287 175.37510874 40.14501953 166.62817383 C53.16013774 146.17139712 54.29617121 118.0606871 50.08251953 94.75317383 C46.73676907 81.33890328 40.94771767 69.28832156 29.27001953 61.31567383 C7.75262575 50.61229158 -18.96579216 52.15884119 -36.03857422 70.22192383 Z " fill="#FFFFFF" transform="translate(1794.72998046875,175.684326171875)"/>
<path d="M0 0 C60.72 0 121.44 0 184 0 C184 19.47 184 38.94 184 59 C147.04 59 110.08 59 72 59 C72 84.41 72 109.82 72 136 C105.99 136 139.98 136 175 136 C175 155.47 175 174.94 175 195 C141.01 195 107.02 195 72 195 C72 235.59 72 276.18 72 318 C48.24 318 24.48 318 0 318 C0 213.06 0 108.12 0 0 Z " fill="#FFFFFF" transform="translate(1000,91)"/>
<path d="M0 0 C1.2684375 0.36222656 2.536875 0.72445312 3.84375 1.09765625 C23.63709572 7.44443558 38.68957203 20.62928043 48.25 38.9375 C58.74637707 61.15340919 58.42905589 83.93431472 58.30418181 107.92217112 C58.28521434 112.19019521 58.28364898 116.4582281 58.28010559 120.72628784 C58.2708433 128.77933905 58.24630977 136.83226563 58.21605712 144.88526237 C58.17600316 155.78784218 58.16001115 166.69045695 58.14255047 177.59309196 C58.11448326 194.72882102 58.05467552 211.8642873 58 229 C35.89 229 13.78 229 -9 229 C-9.33 219.1 -9.66 209.2 -10 199 C-12.97 202.96 -15.94 206.92 -19 211 C-30.05572901 223.78996101 -46.37938419 231.67658115 -63 234 C-84.59749027 235.50962729 -106.07793712 234.42407253 -123.8828125 220.79296875 C-126.36678534 218.61671195 -128.69985785 216.36842096 -131 214 C-131.56074219 213.45988281 -132.12148437 212.91976562 -132.69921875 212.36328125 C-145.72581687 198.78963439 -148.45341169 178.94408533 -148.21484375 161 C-147.64273549 142.49354144 -141.12647613 123.88569898 -127.41796875 110.97265625 C-111.03786165 97.60924093 -91.71554072 91.46260709 -71 88.5625 C-69.58397459 88.35715437 -68.1680424 88.15116504 -66.75219727 87.94458008 C-62.96997986 87.39652054 -59.18575369 86.86386227 -55.4006958 86.33581543 C-52.93058791 85.99029046 -50.46109921 85.64058537 -47.99169922 85.29003906 C-43.7899975 84.69453956 -39.58726376 84.10693549 -35.38354492 83.52584839 C-33.76649999 83.30217116 -32.14963379 83.07719753 -30.53295898 82.8508606 C-28.26099182 82.53419705 -25.98812865 82.22501189 -23.71484375 81.91796875 C-22.41667725 81.74031982 -21.11851074 81.5626709 -19.78100586 81.37963867 C-15.80388024 80.98030824 -11.99307591 80.93487592 -8 81 C-9.87856937 69.40785243 -11.88766259 59.17160437 -21.63671875 51.5078125 C-36.83060261 41.81386346 -60.07636257 44.38557077 -76.91748047 48.0949707 C-91.56447337 51.68845032 -104.96659826 57.53571224 -118.05981445 64.94433594 C-120.67039845 66.36476694 -123.34176404 67.67088202 -126 69 C-126 50.85 -126 32.7 -126 14 C-108.22561137 6.89024455 -108.22561137 6.89024455 -101.625 4.9375 C-100.81119873 4.69491455 -99.99739746 4.4523291 -99.15893555 4.20239258 C-68.31407189 -4.65868451 -31.29148808 -9.42617351 0 0 Z M-23.5390625 122.953125 C-24.34177582 123.05461853 -25.14448914 123.15611206 -25.9715271 123.26068115 C-27.66443808 123.47683938 -29.35703241 123.69549065 -31.04931641 123.91650391 C-33.59537765 124.24616454 -36.14315122 124.55891155 -38.69140625 124.87109375 C-52.87970296 126.67247305 -66.94298241 128.73095564 -77.375 139.4375 C-82.47805438 147.48462421 -83.03654702 154.47174089 -82 164 C-80.15284642 170.53345062 -76.83825683 174.82981655 -71.35546875 178.74609375 C-64.99990475 182.12940394 -59.38508652 183.53515219 -52.1875 183.4375 C-51.00619507 183.42614014 -51.00619507 183.42614014 -49.80102539 183.41455078 C-37.81744813 183.07760874 -27.61487371 178.06688187 -19.3125 169.4375 C-7.8230693 155.4097067 -7.65684725 139.15763743 -8 122 C-13.26951816 121.89417593 -18.31512154 122.28258242 -23.5390625 122.953125 Z " fill="#FFFFFF" transform="translate(3006,180)"/>
<path d="M0 0 C0.78701294 -0.00970322 1.57402588 -0.01940643 2.3848877 -0.02940369 C4.92461303 -0.05425615 7.46407153 -0.06692596 10.00390625 -0.07421875 C10.87234161 -0.07683716 11.74077698 -0.07945557 12.63552856 -0.08215332 C33.26598811 -0.08880593 51.42304434 3.20244077 71.56640625 8.23828125 C71.56640625 26.71828125 71.56640625 45.19828125 71.56640625 64.23828125 C64.63640625 61.26828125 57.70640625 58.29828125 50.56640625 55.23828125 C38.41808958 51.81622022 27.44947742 50.03359061 14.87890625 49.92578125 C13.77095703 49.89677734 12.66300781 49.86777344 11.52148438 49.83789062 C1.1369843 49.75899027 -8.46285683 51.57963295 -16.2265625 58.87109375 C-19.10727112 62.13403232 -18.76281469 65.53773944 -18.71484375 69.69921875 C-18.18878712 74.44834111 -15.61634955 77.09031239 -12.30859375 80.30078125 C-4.0096191 85.89356852 5.24463454 89.00152678 14.65350342 92.17196655 C66.86701799 109.8583441 66.86701799 109.8583441 79.94140625 133.98828125 C87.45173337 150.3858288 87.79551028 170.0756148 82.56640625 187.23828125 C75.17923665 206.26024298 61.46785648 219.02521579 43.265625 227.67578125 C27.09949455 234.72820705 9.06028588 238.30959506 -8.5234375 238.4765625 C-9.80377113 238.49125328 -9.80377113 238.49125328 -11.10997009 238.50624084 C-37.53193628 238.74688842 -61.2180658 236.68678288 -86.43359375 228.23828125 C-87.42359375 227.90828125 -88.41359375 227.57828125 -89.43359375 227.23828125 C-89.43359375 208.09828125 -89.43359375 188.95828125 -89.43359375 169.23828125 C-86.07215445 170.07864108 -83.77461705 170.9705946 -80.75 172.53125 C-61.5086646 182.23551693 -43.46418986 188.39757718 -21.80859375 188.48828125 C-20.60074219 188.50890625 -19.39289063 188.52953125 -18.1484375 188.55078125 C-7.10064558 188.59834978 3.72228533 187.41579647 12.56640625 180.23828125 C15.50500394 177.01530313 16.45842712 174.36126425 16.87890625 169.98828125 C16.5083682 165.54182467 15.50214364 162.54960906 12.56640625 159.23828125 C2.56595055 151.28563258 -10.88641687 147.70334779 -22.87109375 143.80078125 C-46.10044143 136.21368388 -71.10677219 126.20374495 -83.18359375 103.61328125 C-91.34035199 86.89326696 -91.72034708 66.9339424 -86.43359375 49.23828125 C-79.56707051 31.46232855 -65.51702004 18.21168632 -48.43359375 10.23828125 C-33.10088386 3.64411819 -16.68981106 0.17244669 0 0 Z " fill="#FFFFFF" transform="translate(1431.43359375,175.76171875)"/>
<path d="M0 0 C0 22.77 0 45.54 0 69 C16.83 69 33.66 69 51 69 C51 86.49 51 103.98 51 122 C34.17 122 17.34 122 0 122 C0.09095102 139.30285775 0.09095102 139.30285775 0.20898438 156.60546875 C0.26317344 163.66941288 0.31428871 170.73327996 0.34643555 177.79736328 C0.37257291 183.49686808 0.41304861 189.196112 0.46318626 194.89545441 C0.47978464 197.06255074 0.49134244 199.22969213 0.49761391 201.39684296 C-0.09637507 221.38528139 -0.09637507 221.38528139 8 239 C15.19836331 245.88539099 22.13823208 246.61458435 31.79296875 246.40234375 C37.16834654 246.06537977 41.61347458 244.28678555 46.5234375 242.09375 C49 241 49 241 51 241 C51 258.49 51 275.98 51 294 C41.96725441 298.5163728 41.96725441 298.5163728 36.9375 299.6875 C35.97714844 299.91824219 35.01679688 300.14898437 34.02734375 300.38671875 C27.954234 301.61701324 22.0098068 302.17476795 15.8203125 302.23828125 C15.04928192 302.246353 14.27825134 302.25442474 13.4838562 302.26274109 C11.85514518 302.27650476 10.22640625 302.28726103 8.59765625 302.29516602 C6.9670335 302.30659712 5.33644548 302.32690537 3.70605469 302.35668945 C-16.74489909 302.72886521 -36.45770952 299.0540572 -51.86865234 284.52978516 C-72.04350801 264.08127937 -71.31543147 233.74343494 -71.1953125 207.05859375 C-71.19157397 204.59424455 -71.18873098 202.12989384 -71.18673706 199.6655426 C-71.1791667 193.23609177 -71.15957621 186.8067339 -71.1373291 180.37731934 C-71.11672716 173.79387672 -71.10770491 167.21041881 -71.09765625 160.62695312 C-71.07632299 147.75125505 -71.041196 134.87564986 -71 122 C-82.88 122 -94.76 122 -107 122 C-107 104.51 -107 87.02 -107 69 C-95.12 69 -83.24 69 -71 69 C-71 52.5 -71 36 -71 19 C-54.72919301 14.25824743 -54.72919301 14.25824743 -47.78320312 12.24609375 C-43.04615364 10.87379782 -38.30955499 9.50006442 -33.57543945 8.11767578 C-29.75810449 7.00309121 -25.93892941 5.89503653 -22.11839867 4.79145813 C-20.66210896 4.36956644 -19.20649415 3.94533782 -17.75158119 3.51872253 C-15.71153922 2.92096901 -13.66924214 2.33161684 -11.6262207 1.74414062 C-10.46484085 1.40660767 -9.303461 1.06907471 -8.10688782 0.72131348 C-5 0 -5 0 0 0 Z " fill="#FFFFFF" transform="translate(2786,112)"/>
<path d="M0 0 C23.43 0 46.86 0 71 0 C71 110.88 71 221.76 71 336 C47.57 336 24.14 336 0 336 C0 225.12 0 114.24 0 0 Z " fill="#FFFFFF" transform="translate(3119,73)"/>
<path d="M0 0 C18.93784305 -0.65499307 35.9655401 5.25002947 50.66015625 17.16015625 C51.3665625 17.70285156 52.07296875 18.24554687 52.80078125 18.8046875 C58.85381623 23.70192643 63.18593357 29.85274511 67.66015625 36.16015625 C68.02367188 35.51949219 68.3871875 34.87882813 68.76171875 34.21875 C77.74888115 18.75622188 90.72520491 8.69441336 107.9375 3.09375 C110.83575443 2.33720691 113.71446738 1.70005524 116.66015625 1.16015625 C117.70042969 0.96486328 117.70042969 0.96486328 118.76171875 0.765625 C120.73359168 0.46132362 122.66862658 0.28276908 124.66015625 0.16015625 C125.51609375 0.10730469 126.37203125 0.05445313 127.25390625 0 C146.96678116 -0.60940339 166.1990188 6.17119227 181.34765625 18.84765625 C195.3160534 32.00775555 205.12763199 50.59122574 205.75041389 69.96842766 C205.78317014 73.45907409 205.78374984 76.94841985 205.77368164 80.43920898 C205.77339923 81.78012591 205.77355856 83.121043 205.77412415 84.46195984 C205.77441 88.08541039 205.76854759 91.70882756 205.76155019 95.33227038 C205.7552813 99.12524415 205.75471006 102.91821875 205.75352478 106.7111969 C205.75042187 113.8862461 205.74222253 121.06127999 205.73217529 128.23632246 C205.72098182 136.40803215 205.71549556 144.57974259 205.71047986 152.75145805 C205.70003902 169.55436782 205.68170651 186.3572565 205.66015625 203.16015625 C196.09015625 203.16015625 186.52015625 203.16015625 176.66015625 203.16015625 C176.65081055 199.39673828 176.64146484 195.63332031 176.63183594 191.75585938 C176.59795938 179.27477771 176.54254912 166.79386786 176.47625351 154.31291962 C176.43660595 146.75109039 176.40414152 139.18936307 176.38916016 131.62744141 C176.37606893 125.02909585 176.3489166 118.43097589 176.30554318 111.83275747 C176.28309431 108.34567882 176.26723544 104.85887666 176.2682724 101.37171936 C176.26777182 79.49952291 175.96092497 59.12954842 160.03515625 42.41796875 C150.15475441 33.02508674 138.43978775 29.50786486 124.97216797 29.68969727 C111.98671336 30.23918333 99.99105446 35.29870188 90.91015625 44.72265625 C80.23788587 58.03733973 77.20654563 73.62497496 77.2277832 90.31591797 C77.21759155 91.54691223 77.2073999 92.77790649 77.19689941 94.04620361 C77.1721548 97.37184346 77.16009493 100.69704412 77.15404534 104.02273703 C77.14456637 107.51678124 77.11835662 111.01070242 77.09403992 114.50466919 C77.05063 121.09863124 77.02192739 127.69256907 76.99871653 134.2866298 C76.97152677 141.80320736 76.92762473 149.31965958 76.88242781 156.83614707 C76.78994753 172.27743266 76.72030566 187.71870572 76.66015625 203.16015625 C67.09015625 203.16015625 57.52015625 203.16015625 47.66015625 203.16015625 C47.65081055 199.36644531 47.64146484 195.57273437 47.63183594 191.6640625 C47.59796096 179.08319677 47.5425516 166.50250153 47.47625351 153.92176819 C47.43660416 146.29940482 47.40414062 138.67714258 47.38916016 131.0546875 C47.37606988 124.40360514 47.34891989 117.75274663 47.30554318 111.10179043 C47.28309223 107.58676661 47.26723557 104.07201715 47.2682724 100.55691528 C47.3792607 68.86265109 47.3792607 68.86265109 31.66015625 42.16015625 C18.92170448 31.81443692 5.77798769 28.85291029 -10.33984375 30.16015625 C-21.65762347 32.18904549 -32.45729015 37.66842446 -39.71484375 46.7578125 C-52.13023774 65.11230121 -51.80616274 84.39667833 -51.84595466 105.82166672 C-51.85545604 109.25430702 -51.88166687 112.68682303 -51.90596008 116.11938477 C-51.94931006 122.59286557 -51.97804895 129.06632182 -52.00128347 135.53990269 C-52.02850608 142.92110094 -52.07240556 150.30217219 -52.11757219 157.68327904 C-52.20996621 172.84218238 -52.27965175 188.00108439 -52.33984375 203.16015625 C-61.90984375 203.16015625 -71.47984375 203.16015625 -81.33984375 203.16015625 C-81.33984375 137.82015625 -81.33984375 72.48015625 -81.33984375 5.16015625 C-71.76984375 5.16015625 -62.19984375 5.16015625 -52.33984375 5.16015625 C-52.00984375 12.09015625 -51.67984375 19.02015625 -51.33984375 26.16015625 C-49.42171875 23.90171875 -49.42171875 23.90171875 -47.46484375 21.59765625 C-35.06397813 7.87919866 -18.2203246 1.24713407 0 0 Z " fill="#ABABAB" transform="translate(2173.33984375,582.83984375)"/>
<path d="M0 0 C9.24 0 18.48 0 28 0 C28 92.4 28 184.8 28 280 C18.76 280 9.52 280 0 280 C-0.33 270.43 -0.66 260.86 -1 251 C-5.455 256.445 -5.455 256.445 -10 262 C-30.20503068 279.64743186 -54.13329832 286.48485824 -80.68164062 285.16845703 C-108.20843692 283.16830018 -131.66153001 270.52820023 -149.65625 249.93359375 C-169.06743894 225.63725559 -174.32474945 195.9385997 -171.78173828 165.37695312 C-168.71612395 139.66673943 -156.48841674 116.25947914 -136.94921875 99.3125 C-115.26597865 82.3105422 -88.96728918 74.2770483 -61.390625 77.5 C-36.58307965 80.79486903 -18.68031397 91.31968603 -1 109 C-0.67 73.03 -0.34 37.06 0 0 Z M-125.1875 130.5625 C-139.8675026 150.0655014 -143.43674967 172.56844822 -140.71875 196.47363281 C-137.80753854 215.02433537 -126.95776024 232.78167982 -112 244 C-95.22491979 255.33563589 -77.25456404 258.37081259 -57.27734375 255.45703125 C-54.43358686 254.79287641 -51.74800752 253.98295759 -49 253 C-48.18144531 252.74476563 -47.36289063 252.48953125 -46.51953125 252.2265625 C-29.46933511 246.31727354 -16.35422833 232.606661 -8 217 C-6.03195363 212.74308218 -4.41257372 208.47017 -3 204 C-2.76667969 203.28070312 -2.53335937 202.56140625 -2.29296875 201.8203125 C3.23251192 181.38795952 -0.56837061 159.1478956 -10.625 140.875 C-20.56966047 123.82294382 -35.60209585 113.2896465 -54.30078125 107.2578125 C-80.39438468 100.6780783 -107.83538987 110.4421544 -125.1875 130.5625 Z " fill="#ABABAB" transform="translate(1800,506)"/>
<path d="M0 0 C1.1240625 -0.01224609 2.248125 -0.02449219 3.40625 -0.03710938 C4.49679688 -0.03904297 5.58734375 -0.04097656 6.7109375 -0.04296875 C8.1966626 -0.04913208 8.1966626 -0.04913208 9.71240234 -0.05541992 C12.625 0.1875 12.625 0.1875 18.625 2.1875 C18.625 23.6375 18.625 45.0875 18.625 67.1875 C14.4886048 66.36022096 10.85230349 65.29570545 6.90625 63.90625 C-5.311878 60.05670282 -21.95590993 60.29495673 -33.375 66.1875 C-45.35132994 73.21527694 -52.45012324 84.85598897 -56.1875 98 C-58.24928102 106.05968946 -58.53723524 113.80773071 -58.58032227 122.08959961 C-58.59022186 123.27080383 -58.60012146 124.45200806 -58.61032104 125.66900635 C-58.63639531 128.88955096 -58.65830369 132.11009085 -58.67832303 135.33067775 C-58.70028457 138.70327128 -58.72762321 142.07582123 -58.75437927 145.44837952 C-58.80416936 151.82653819 -58.84915858 158.20472123 -58.89240164 164.58292729 C-58.94675116 172.56117685 -59.00754703 180.53937565 -59.06835938 188.51757812 C-59.17674522 202.74084632 -59.27541756 216.9641614 -59.375 231.1875 C-82.805 231.1875 -106.235 231.1875 -130.375 231.1875 C-130.375 155.9475 -130.375 80.7075 -130.375 3.1875 C-106.945 3.1875 -83.515 3.1875 -59.375 3.1875 C-59.045 15.7275 -58.715 28.2675 -58.375 41.1875 C-54.91 34.2575 -54.91 34.2575 -51.375 27.1875 C-49.09152093 23.96616345 -46.96831986 21.10134253 -44.375 18.1875 C-43.83230469 17.56359375 -43.28960938 16.9396875 -42.73046875 16.296875 C-31.32938157 4.01467335 -16.14278039 0.00919293 0 0 Z " fill="#FFFFFF" transform="translate(2648.375,177.8125)"/>
<path d="M0 0 C11.22 0 22.44 0 34 0 C70.12499997 97.74999992 70.12499997 97.74999992 71.18756104 100.62516785 C71.89568858 102.54127589 72.60381846 104.45738307 73.31195068 106.37348938 C75.0859517 111.17369594 76.85991179 115.97391763 78.63378906 120.77416992 C81.78341702 129.2971937 84.93327807 137.82013075 88.08476257 146.34246826 C89.80671594 150.99906877 91.52837797 155.65577698 93.25 160.3125 C93.76377701 161.70205902 93.76377701 161.70205902 94.28793335 163.11968994 C98.63961466 174.89034155 102.98248966 186.66420162 107.31640625 198.44140625 C108.691574 202.17783801 110.06674933 205.91426698 111.44192505 209.6506958 C112.35082934 212.12048856 113.25958341 214.5903366 114.16818237 217.0602417 C118.41562845 228.60477091 122.66309362 240.1488725 127 251.66015625 C127.29226974 252.43617188 127.58453949 253.2121875 127.88566589 254.01171875 C129.1853893 257.4590713 130.48986981 260.90451964 131.80200195 264.34716797 C132.23472412 265.48943848 132.66744629 266.63170898 133.11328125 267.80859375 C133.66689331 269.25963501 133.66689331 269.25963501 134.23168945 270.73999023 C135 273 135 273 135 275 C124.11 275 113.22 275 102 275 C101.01 272.15117188 100.02 269.30234375 99 266.3671875 C97.66741831 262.53619655 96.33376959 258.70557753 95 254.875 C94.48661575 253.40004562 94.48661575 253.40004562 93.96286011 251.89529419 C89.76297981 239.83488986 85.55293406 227.78190055 81.08398438 215.81787109 C79 210.20032818 79 210.20032818 79 208 C38.08 208 -2.84 208 -45 208 C-45.33 209.65 -45.66 211.3 -46 213 C-46.46547598 214.49129437 -46.96229943 215.97310036 -47.48706055 217.44458008 C-47.7879509 218.29349319 -48.08884125 219.14240631 -48.39884949 220.01704407 C-48.72484634 220.92536484 -49.0508432 221.83368561 -49.38671875 222.76953125 C-49.72621048 223.72333176 -50.06570221 224.67713226 -50.41548157 225.65983582 C-51.13596107 227.6819244 -51.85810422 229.70342089 -52.58178711 231.72436523 C-53.66949796 234.76222229 -54.75221816 237.80181859 -55.83398438 240.84179688 C-58.99394802 249.70751021 -62.17631537 258.5648704 -65.45703125 267.38671875 C-65.70281418 268.05226273 -65.94859711 268.7178067 -66.201828 269.40351868 C-67.88080607 273.88080607 -67.88080607 273.88080607 -69 275 C-71.3756852 275.0883967 -73.72208674 275.11530305 -76.09765625 275.09765625 C-77.16094398 275.09553383 -77.16094398 275.09553383 -78.24571228 275.09336853 C-80.51801712 275.08775443 -82.79022475 275.07519963 -85.0625 275.0625 C-86.59960796 275.05748681 -88.13671745 275.05292359 -89.67382812 275.04882812 C-93.44925642 275.03778042 -97.22461171 275.02050641 -101 275 C-99.10092199 268.42591091 -96.98271758 261.98651604 -94.5859375 255.578125 C-94.09602829 254.25648346 -94.09602829 254.25648346 -93.59622192 252.90814209 C-92.52532075 250.0210315 -91.45013815 247.13553513 -90.375 244.25 C-89.6136036 242.19934076 -88.85254214 240.14855713 -88.09179688 238.09765625 C-86.51268775 233.84131478 -84.93214571 229.58550957 -83.35058594 225.33007812 C-80.07190098 216.50494832 -76.81076739 207.67334373 -73.54949951 198.84176636 C-71.77857261 194.04656594 -70.00643695 189.2518123 -68.234375 184.45703125 C-67.8828537 183.50582901 -67.5313324 182.55462677 -67.16915894 181.57460022 C-65.08507026 175.93529264 -63.00036842 170.29621216 -60.91516113 164.65731812 C-52.76237657 142.61017014 -44.6238876 120.55781342 -36.5 98.5 C-9.89548255 26.26800821 -9.89548255 26.26800821 0 0 Z M16 37 C15.81224503 37.53456314 15.62449005 38.06912628 15.43104553 38.61988831 C6.83400499 63.090844 -1.79058447 87.5510641 -10.625 111.9375 C-10.96827332 112.88507172 -11.31154663 113.83264343 -11.66522217 114.80892944 C-15.25383247 124.70979758 -18.85545131 134.60592019 -22.46118164 144.50056458 C-23.60057827 147.62729519 -24.73951445 150.75419326 -25.87841797 153.88110352 C-27.30883227 157.80818112 -28.74172783 161.73434055 -30.17626953 165.65991211 C-30.81678747 167.4164836 -31.45725276 169.17307428 -32.09765625 170.9296875 C-32.54158974 172.14155983 -32.54158974 172.14155983 -32.99449158 173.37791443 C-34.38657724 176.61072509 -34.38657724 176.61072509 -35 180 C-1.01 180 32.98 180 68 180 C65.98062196 172.59561385 63.8676301 165.48105428 61.25390625 158.30078125 C60.89061218 157.29166687 60.52731812 156.28255249 60.15301514 155.24285889 C58.95998671 151.93135113 57.7612007 148.62195823 56.5625 145.3125 C55.28747771 141.77753187 54.01395118 138.24202687 52.74040222 134.70652771 C51.85485296 132.24863172 50.96878794 129.79092149 50.08222961 127.33338928 C46.89776547 118.50413516 43.73171061 109.66845247 40.578125 100.828125 C40.13536728 99.5870549 39.69260956 98.3459848 39.23643494 97.06730652 C37.51296846 92.23505595 35.79014446 87.4025766 34.06765747 82.56997681 C31.75481424 76.08227768 29.43617393 69.59670243 27.11187744 63.11309814 C25.97108517 59.9190426 24.84135851 56.72120524 23.71240234 53.52294922 C22.98951217 51.49307346 22.26637867 49.46328434 21.54296875 47.43359375 C21.21396072 46.49282486 20.8849527 45.55205597 20.54597473 44.58277893 C20.23971664 43.72844772 19.93345856 42.87411652 19.61791992 41.99389648 C19.352509 41.24333481 19.08709808 40.49277313 18.81364441 39.71946716 C18.12416791 37.80491907 18.12416791 37.80491907 16 37 Z " fill="#ABABAB" transform="translate(1076,511)"/>
<path d="M0 0 C1.11955078 1.01320313 1.11955078 1.01320313 2.26171875 2.046875 C3.39673828 3.06007813 3.39673828 3.06007813 4.5546875 4.09375 C20.90531959 19.5156887 32.56188958 42.97485152 33.35058594 65.59570312 C33.53803916 74.53814376 33.52857935 83.17885077 32.26171875 92.046875 C-19.87828125 92.046875 -72.01828125 92.046875 -125.73828125 92.046875 C-121.80679873 115.63577013 -116.13462837 132.80176589 -96.66796875 147.33984375 C-80.29542133 158.06044298 -60.5423582 161.77512898 -41.2578125 158.36328125 C-22.5623249 154.37813266 -7.88091144 142.25232778 2.69921875 126.546875 C3.21484375 125.721875 3.73046875 124.896875 4.26171875 124.046875 C9.96495459 125.67369965 14.94185778 128.37885487 20.13671875 131.171875 C21.01585937 131.63980469 21.895 132.10773438 22.80078125 132.58984375 C24.95666146 133.7380843 27.11018652 134.89051403 29.26171875 136.046875 C23.58244432 154.5381619 7.81770823 167.11682815 -8.55859375 176.03857422 C-31.82088506 188.36882597 -60.62129273 190.82848478 -85.90039062 183.41259766 C-112.73715804 174.73914103 -132.67926726 157.12192786 -145.69238281 132.22119141 C-158.85471621 105.6516785 -159.79626418 71.88719284 -150.41796875 43.984375 C-141.7420839 19.98866415 -124.91203136 -0.49505738 -101.85205078 -11.88476562 C-68.86793922 -26.9758696 -28.06496522 -23.93640008 0 0 Z M-110.48828125 29.984375 C-119.42141995 40.62006484 -123.36327354 51.2967979 -124.73828125 65.046875 C-82.82828125 65.046875 -40.91828125 65.046875 2.26171875 65.046875 C2.26171875 49.37681333 -3.64669982 35.46253831 -14.41040039 24.109375 C-26.25385168 12.29601888 -42.23467579 5.97882594 -58.80078125 5.671875 C-79.87044242 5.73221327 -96.28425568 14.60184949 -110.48828125 29.984375 Z " fill="#ABABAB" transform="translate(2021.73828125,603.953125)"/>
<path d="M0 0 C0.99773437 0.87205078 0.99773437 0.87205078 2.015625 1.76171875 C2.61890625 2.27089844 3.2221875 2.78007813 3.84375 3.3046875 C16.78754647 15.11152888 22.3045941 32.13349454 23.19375992 49.17600441 C23.25929141 52.81531483 23.26340864 56.44927482 23.24267578 60.08911133 C23.24210993 61.47032157 23.24243161 62.85153241 23.24356079 64.23274231 C23.24412853 67.93852023 23.23246942 71.64416547 23.21841288 75.34991288 C23.20580763 79.23893937 23.20472737 83.12796978 23.20236206 87.01701355 C23.19617581 94.36188118 23.17980413 101.70668841 23.15966308 109.05152959 C23.13721458 117.42167537 23.12628827 125.79182422 23.11627221 134.16199267 C23.09543497 151.36194217 23.05879496 168.5618086 23.015625 185.76171875 C13.445625 185.76171875 3.875625 185.76171875 -5.984375 185.76171875 C-6.314375 177.51171875 -6.644375 169.26171875 -6.984375 160.76171875 C-8.69625 162.57671875 -10.408125 164.39171875 -12.171875 166.26171875 C-27.96565724 182.34479628 -50.27269282 190.62362283 -72.63012695 191.00341797 C-93.74971613 191.07788297 -112.01340469 186.19912538 -127.984375 171.76171875 C-138.72591017 160.52235842 -142.82506289 147.07161298 -142.984375 131.76171875 C-142.01802445 115.28007333 -135.4865001 101.33415187 -123.57421875 89.95703125 C-107.15359335 76.03788876 -87.20246673 72.62689625 -66.59057617 69.19775391 C-63.5744438 68.69313448 -60.55965184 68.18089992 -57.54492188 67.66796875 C-50.21350408 66.4208433 -42.88056746 65.18289318 -35.546875 63.94921875 C-33.70459824 63.63880142 -33.70459824 63.63880142 -31.82510376 63.32211304 C-28.29677946 62.72920423 -24.7676846 62.14113486 -21.23828125 61.5546875 C-20.16334412 61.37369507 -19.08840698 61.19270264 -17.980896 61.00622559 C-16.98632385 60.84199097 -15.99175171 60.67775635 -14.96704102 60.50854492 C-14.09805679 60.36374191 -13.22907257 60.2189389 -12.33375549 60.06974792 C-9.984375 59.76171875 -9.984375 59.76171875 -5.984375 59.76171875 C-6.8086719 45.37915913 -8.0749486 33.98028038 -17.984375 22.76171875 C-24.06482722 18.06971625 -30.51815199 14.59305647 -37.984375 12.76171875 C-38.69980469 12.57996094 -39.41523437 12.39820313 -40.15234375 12.2109375 C-57.4829486 9.46194501 -73.55052185 12.37904984 -87.921875 22.4765625 C-95.55636575 28.17321695 -100.12100147 34.58711218 -104.984375 42.76171875 C-110.93053194 41.12208079 -116.01959578 38.13796413 -121.359375 35.13671875 C-122.28621094 34.62109375 -123.21304687 34.10546875 -124.16796875 33.57421875 C-126.44266925 32.30789064 -128.71466292 31.0369595 -130.984375 29.76171875 C-129.89588335 23.575822 -126.7481167 19.69926319 -122.984375 14.76171875 C-122.45714844 14.065625 -121.92992187 13.36953125 -121.38671875 12.65234375 C-107.57081682 -4.32050874 -83.6707477 -14.44943953 -62.3828125 -16.9609375 C-40.32553854 -18.76101388 -17.38645195 -14.41574523 0 0 Z M-15.16137695 86.70800781 C-16.43733231 86.91532532 -17.71328766 87.12264282 -19.02790833 87.33624268 C-20.4262066 87.56631228 -21.82445465 87.79668737 -23.22265625 88.02734375 C-23.93058004 88.14370934 -24.63850384 88.26007492 -25.36787987 88.37996674 C-29.12567732 88.99778737 -32.88297535 89.61854921 -36.63989258 90.24169922 C-40.48341175 90.87864367 -44.3284579 91.50579384 -48.17397785 92.1305275 C-51.15988539 92.61749407 -54.14452671 93.11191381 -57.12889671 93.6082077 C-58.54311699 93.84211365 -59.95778158 94.07335222 -61.37291908 94.30164337 C-76.59835704 96.76342077 -92.64814421 99.42548796 -103.984375 110.76171875 C-109.92254938 118.99256957 -113.29242562 127.49600506 -111.984375 137.76171875 C-109.86656064 146.63878493 -106.00767356 153.34952351 -98.40234375 158.515625 C-84.59292815 166.53088021 -69.90325853 166.17899167 -54.5546875 162.734375 C-44.82513193 160.08376303 -36.94845405 155.89234075 -28.984375 149.76171875 C-27.953125 149.01921875 -26.921875 148.27671875 -25.859375 147.51171875 C-13.86510829 136.0389419 -6.4376125 119.95888469 -5.90673828 103.32983398 C-5.88639417 100.66053732 -5.89689286 97.99346436 -5.921875 95.32421875 C-5.92638672 94.40189453 -5.93089844 93.47957031 -5.93554688 92.52929688 C-5.94723562 90.27336827 -5.96362045 88.01757908 -5.984375 85.76171875 C-9.1626426 85.76171875 -12.02350729 86.19596774 -15.16137695 86.70800781 Z " fill="#ABABAB" transform="translate(1567.984375,600.23828125)"/>
<path d="M0 0 C23.43 0 46.86 0 71 0 C71 75.24 71 150.48 71 228 C47.57 228 24.14 228 0 228 C0 152.76 0 77.52 0 0 Z " fill="#FFFFFF" transform="translate(1557,181)"/>
<path d="M0 0 C23.43 0 46.86 0 71 0 C71 75.24 71 150.48 71 228 C47.57 228 24.14 228 0 228 C0 152.76 0 77.52 0 0 Z " fill="#FFFFFF" transform="translate(1228,181)"/>
<path d="M0 0 C10.23 0 20.46 0 31 0 C35.49988393 8.99976787 35.49988393 8.99976787 36.99234009 12.76605225 C37.33363449 13.62219116 37.67492889 14.47833008 38.02656555 15.3604126 C38.3859874 16.27240417 38.74540924 17.18439575 39.11572266 18.12402344 C39.50679703 19.10790039 39.8978714 20.09177734 40.30079651 21.10546875 C41.14750717 23.23705935 41.99257492 25.36930314 42.8361702 27.5021286 C44.19082494 30.92703719 45.54978959 34.35020903 46.90975952 37.77301025 C49.32901249 43.86393959 51.74444799 49.95637595 54.15863037 56.04931641 C58.42686754 66.82108566 62.69942023 77.59113864 66.9765625 88.359375 C67.43909676 89.52417892 67.90163101 90.68898285 68.37818146 91.88908386 C77.42431281 114.65904886 86.66089616 137.34879005 96 160 C99.2924078 152.89819678 102.38186654 145.75047628 105.26098633 138.47192383 C105.65541931 137.48118362 106.04985229 136.49044342 106.45623779 135.46968079 C107.75069612 132.21646268 109.0413636 128.96175489 110.33203125 125.70703125 C111.25037863 123.39709316 112.1689781 121.08725528 113.08781433 118.7775116 C115.5088504 112.68978482 117.92673774 106.60081248 120.34387207 100.51153564 C122.74515976 94.46340829 125.14895072 88.41627632 127.55273438 82.36914062 C128.02231001 81.1877696 128.49188564 80.00639858 128.97569084 78.78922844 C130.38608361 75.24097456 131.79654165 71.69274664 133.20703125 68.14453125 C133.89916906 66.40339239 133.89916906 66.40339239 134.60528946 64.62707901 C137.30703836 57.83079883 140.00928713 51.03471768 142.71204376 44.2388382 C143.97955167 41.05142164 145.24659336 37.86382003 146.51361084 34.6762085 C148.43021348 29.85528726 150.34956567 25.03547001 152.27121544 20.21655846 C152.96755351 18.46921187 153.66299434 16.72150743 154.35749245 14.97342873 C155.2967111 12.60981657 156.23909052 10.2474907 157.18237305 7.88549805 C157.5938197 6.84690801 157.5938197 6.84690801 158.01357841 5.78733635 C159.88576414 1.11423586 159.88576414 1.11423586 161 0 C163.3756852 -0.0883967 165.72208674 -0.11530305 168.09765625 -0.09765625 C169.16094398 -0.09553383 169.16094398 -0.09553383 170.24571228 -0.09336853 C172.51801712 -0.08775443 174.79022475 -0.07519963 177.0625 -0.0625 C178.59960796 -0.05748681 180.13671745 -0.05292359 181.67382812 -0.04882812 C185.44925642 -0.03778042 189.22461171 -0.02050641 193 0 C178.96875162 35.44886531 164.38008958 70.6782987 149.89724731 105.94436646 C146.59749873 113.97934274 143.3008278 122.01558056 140.00430298 130.05187988 C139.0019468 132.49525443 137.99941428 134.93855655 136.99682617 137.38183594 C133.34239541 146.28787726 129.69048217 155.1949414 126.04260254 164.10366821 C124.3925392 168.13235148 122.74030083 172.16011916 121.08349609 176.18603516 C120.41892884 177.80109999 119.75437813 179.41617164 119.08984375 181.03125 C118.75883667 181.83557465 118.42782959 182.63989929 118.08679199 183.46859741 C115.93590568 188.70216592 113.80668532 193.94411452 111.68913269 199.19125366 C110.20275915 202.86837117 108.70568882 206.54108274 107.20700073 210.2131958 C106.50119945 211.9495207 105.79991086 213.68768884 105.10379028 215.42791748 C94.7934224 241.18595537 81.53556533 264.40253018 54.96875 275.8515625 C42.07582828 280.83908748 28.4734524 280.94074963 15 278.625 C14.2575 278.49899414 13.515 278.37298828 12.75 278.24316406 C9.25863914 277.5997653 6.99138983 276.99425989 4 275 C3.65942383 272.38623047 3.65942383 272.38623047 3.70703125 269.1171875 C3.71669922 267.95058594 3.72636719 266.78398438 3.73632812 265.58203125 C3.76146484 264.35871094 3.78660156 263.13539063 3.8125 261.875 C3.82603516 260.64394531 3.83957031 259.41289063 3.85351562 258.14453125 C3.88896457 255.09592157 3.93837921 252.048175 4 249 C4.90000732 249.07702148 5.80001465 249.15404297 6.72729492 249.23339844 C32.88883016 251.70292611 32.88883016 251.70292611 56 241 C65.27071575 232.83623538 70.73022179 219.1151826 75.75 208.0625 C76.1217334 207.29454102 76.4934668 206.52658203 76.87646484 205.73535156 C78.56792262 201.84155358 79.41444833 199.16551955 77.91870117 195.1003418 C77.63213654 194.31300156 77.3455719 193.52566132 77.05032349 192.71446228 C76.70371674 191.81868973 76.35710999 190.92291718 76 190 C75.60416718 188.97334732 75.20833435 187.94669464 74.80050659 186.88893127 C73.3667532 183.22540557 71.90726567 179.57262498 70.44140625 175.921875 C69.89133844 174.54696601 69.34145134 173.1719847 68.79173279 171.79693604 C67.63760366 168.91165792 66.48170979 166.02709539 65.32446289 163.14306641 C63.87963794 159.54213189 62.43850387 155.93973554 60.99862099 152.33682251 C55.40024135 138.33161446 49.75592377 124.34870018 43.96484375 110.421875 C39.75611615 100.29983792 35.62603228 90.14969948 31.5625 79.96875 C31.29288389 79.29328377 31.02326778 78.61781754 30.74548149 77.92188263 C28.55292043 72.42663706 26.36494308 66.92956883 24.17712402 61.43243408 C22.26604152 56.63119022 20.35271122 51.83084836 18.4375 47.03125 C18.17217468 46.36575134 17.90684937 45.70025269 17.63348389 45.0145874 C14.64235063 37.516786 11.61558057 30.03556696 8.515625 22.58203125 C8.2339296 21.90443504 7.95223419 21.22683884 7.66200256 20.52870941 C6.31586601 17.29424547 4.96434734 14.06215816 3.60522461 10.83312988 C3.13093018 9.69903687 2.65663574 8.56494385 2.16796875 7.39648438 C1.74797607 6.39887085 1.3279834 5.40125732 0.89526367 4.37341309 C0 2 0 2 0 0 Z " fill="#ABABAB" transform="translate(2392,588)"/>
<path d="M0 0 C8.7546745 7.39254772 18.67590784 16.62285444 22.49829102 27.71655273 C22.375 29.65136719 22.375 29.65136719 21.49829102 31.71655273 C19.18164062 33.2722168 19.18164062 33.2722168 16.15063477 34.73217773 C15.07104492 35.26069336 13.99145508 35.78920898 12.87915039 36.33374023 C11.7428418 36.87256836 10.6065332 37.41139648 9.43579102 37.96655273 C8.29561523 38.52084961 7.15543945 39.07514648 5.98071289 39.64624023 C3.15908534 41.01573311 0.33175776 42.37177088 -2.50170898 43.71655273 C-5.13613723 41.18493144 -6.87239849 38.61044599 -8.75170898 35.46655273 C-17.13533351 22.24021341 -30.27727299 13.39141659 -45.50170898 9.71655273 C-64.30541003 5.80242087 -83.39203206 9.42945046 -99.50170898 19.71655273 C-114.86880786 30.85480442 -125.05078225 47.62599527 -128.43920898 66.21655273 C-131.91403621 88.12220332 -128.66953178 111.37671827 -115.50170898 129.71655273 C-112.65781023 133.21553602 -109.65533057 136.49559403 -106.50170898 139.71655273 C-105.7244043 140.54799805 -105.7244043 140.54799805 -104.93139648 141.39624023 C-92.58109961 153.35856967 -74.74702343 157.20503065 -58.22192383 157.06860352 C-42.15678198 156.64986442 -28.21247536 150.85461722 -16.50170898 139.71655273 C-11.46589251 134.158569 -7.31867521 128.15768324 -3.50170898 121.71655273 C2.44444796 123.35619069 7.53351179 126.34030735 12.87329102 129.34155273 C13.80012695 129.85717773 14.72696289 130.37280273 15.68188477 130.90405273 C17.95658527 132.17038085 20.22857894 133.44131198 22.49829102 134.71655273 C19.92751543 148.99253021 6.11230729 161.51689168 -5.28295898 169.62280273 C-28.16750255 184.50886505 -53.98051747 190.0035016 -81.04467773 185.46655273 C-107.39965657 179.74886241 -130.23112706 165.33432619 -145.05151367 142.56567383 C-161.03138373 116.82177705 -165.18291415 85.06197639 -158.65405273 55.64233398 C-153.7629761 36.37505641 -145.36648499 20.74938663 -131.50170898 6.71655273 C-130.91905273 6.06170898 -130.33639648 5.40686523 -129.73608398 4.73217773 C-97.56792419 -30.68529114 -35.34710531 -28.73040579 0 0 Z " fill="#ABABAB" transform="translate(1377.501708984375,604.283447265625)"/>
<path d="M0 0 C1.44632813 0.00918457 1.44632813 0.00918457 2.921875 0.01855469 C15.42790522 0.29355197 24.76393199 4.47353951 33.45703125 13.53125 C39.71444796 20.96098079 41.48916988 30.47360306 40.9375 40 C39.61294776 50.56631445 35.20740724 58.48337917 26.92578125 65.16015625 C15.30832125 73.41199956 2.37890976 74.59440163 -11.4765625 72.28515625 C-21.95677254 69.7183328 -30.82872387 64.16562092 -36.5 54.87890625 C-41.19550673 45.90141752 -42.52215432 36.41903417 -40.25390625 26.42578125 C-36.75820065 16.02569447 -30.73952008 8.55892584 -20.9375 3.4375 C-13.96692446 0.71179108 -7.44487651 -0.08069621 0 0 Z " fill="#FFFFFF" transform="translate(1592.9375,72.5625)"/>
<path d="M0 0 C1.44632813 0.00918457 1.44632813 0.00918457 2.921875 0.01855469 C15.42790522 0.29355197 24.76393199 4.47353951 33.45703125 13.53125 C39.71444796 20.96098079 41.48916988 30.47360306 40.9375 40 C39.61294776 50.56631445 35.20740724 58.48337917 26.92578125 65.16015625 C15.30832125 73.41199956 2.37890976 74.59440163 -11.4765625 72.28515625 C-21.95677254 69.7183328 -30.82872387 64.16562092 -36.5 54.87890625 C-41.19550673 45.90141752 -42.52215432 36.41903417 -40.25390625 26.42578125 C-36.75820065 16.02569447 -30.73952008 8.55892584 -20.9375 3.4375 C-13.96692446 0.71179108 -7.44487651 -0.08069621 0 0 Z " fill="#FFFFFF" transform="translate(1263.9375,72.5625)"/>
</svg>
