<svg width="159" height="42" viewBox="0 0 159 42" fill="none" xmlns="http://www.w3.org/2000/svg">
<g clip-path="url(#clip0_37_22)">
<path fill-rule="evenodd" clip-rule="evenodd" d="M0.330566 4.63347L3.11024 3.43702C13.4437 -1.01075 25.182 -1.01075 35.5154 3.43702L38.2951 4.63347V23.1219C38.2951 33.4882 29.7965 41.8918 19.3128 41.8918C8.82921 41.8918 0.330566 33.4882 0.330566 23.1219V4.63347ZM6.34475 8.54344V16.6344C6.98612 16.4808 7.61596 16.2781 8.22839 16.0272C9.77896 15.3922 11.1878 14.4613 12.3746 13.2878C13.5613 12.1144 14.5027 10.7212 15.145 9.18805C15.5464 8.22982 15.826 7.22858 15.9793 6.20728C12.6988 6.52131 9.45299 7.30006 6.34475 8.54344ZM6.34584 23.2911C6.98684 23.4446 7.6163 23.6473 8.22839 23.898C9.77896 24.5331 11.1878 25.4639 12.3746 26.6374C13.5613 27.8109 14.5027 29.204 15.145 30.7372C15.7846 32.2641 16.1151 33.9002 16.1178 35.5528C10.5537 34.1588 6.42323 29.2082 6.34584 23.2911ZM19.1249 25.4898C18.4057 24.3888 17.569 23.3635 16.6272 22.4323C15.6855 21.5011 14.6486 20.6737 13.5352 19.9626C14.6486 19.2515 15.6855 18.4241 16.6272 17.4929C17.569 16.5617 18.4057 15.5364 19.1249 14.4354C19.8441 15.5364 20.6808 16.5617 21.6225 17.4929C22.5643 18.4241 23.6012 19.2515 24.7146 19.9626C23.6012 20.6737 22.5643 21.5011 21.6225 22.4323C20.6808 23.3635 19.8441 24.3888 19.1249 25.4898ZM22.132 35.6411C27.9117 34.3741 32.2407 29.2939 32.2807 23.2069C31.5094 23.3673 30.753 23.5984 30.0214 23.898C28.4708 24.5331 27.062 25.4639 25.8752 26.6374C24.6885 27.8109 23.7471 29.204 23.1048 30.7372C22.4625 32.2704 22.132 33.9137 22.132 35.5732V35.6411ZM30.0214 16.0272C30.7531 16.3269 31.5096 16.558 32.2809 16.7184V8.54344C29.0524 7.25192 25.6755 6.46173 22.2653 6.1729C22.4175 7.20613 22.6989 8.21908 23.1048 9.18805C23.7471 10.7212 24.6885 12.1144 25.8752 13.2878C27.062 14.4613 28.4708 15.3922 30.0214 16.0272Z" fill="white"/>
<path d="M48.3613 3.16907V19.0335H58.4832V16.1587H51.6992V3.16907H48.3613Z" fill="white"/>
<path d="M99.3369 19.0334H102.567V7.40662H99.3369V19.0334Z" fill="white"/>
<path d="M99.3369 3.16907V6.36324H102.567V3.16907H99.3369Z" fill="white"/>
<path fill-rule="evenodd" clip-rule="evenodd" d="M104.285 23.2924V7.40665H107.3V8.61283C107.649 8.20748 108.079 7.88352 108.592 7.64092C109.267 7.31437 110.035 7.15112 110.897 7.15112C112.016 7.15112 113.028 7.42085 113.933 7.96035C114.837 8.49981 115.555 9.2309 116.087 10.1537C116.618 11.0622 116.883 12.0844 116.883 13.22C116.883 14.3416 116.618 15.3637 116.087 16.2865C115.57 17.2092 114.859 17.9404 113.954 18.4798C113.05 19.0193 112.024 19.289 110.875 19.289C110.071 19.289 109.324 19.147 108.635 18.8631C108.211 18.6756 107.838 18.4348 107.516 18.1406V23.2924H104.285ZM110.487 16.4142C111.09 16.4142 111.621 16.2794 112.081 16.0096C112.54 15.7399 112.899 15.3637 113.158 14.881C113.416 14.3984 113.545 13.8447 113.545 13.22C113.545 12.5954 113.416 12.0489 113.158 11.5804C112.899 11.0977 112.54 10.7215 112.081 10.4518C111.621 10.1678 111.09 10.0259 110.487 10.0259C109.913 10.0259 109.396 10.1608 108.937 10.4305C108.492 10.7002 108.14 11.0764 107.882 11.5591C107.637 12.0418 107.516 12.5954 107.516 13.22C107.516 13.8447 107.637 14.3984 107.882 14.881C108.14 15.3637 108.492 15.7399 108.937 16.0096C109.396 16.2794 109.913 16.4142 110.487 16.4142Z" fill="white"/>
<path d="M119.357 18.3946C120.318 18.9909 121.445 19.289 122.738 19.289C123.656 19.289 124.453 19.1399 125.128 18.8418C125.803 18.5295 126.327 18.1036 126.7 17.5641C127.088 17.0247 127.282 16.393 127.282 15.6689C127.282 14.8314 127.023 14.1287 126.506 13.5608C125.989 12.9787 125.243 12.5457 124.267 12.2618L122.393 11.7082C122.106 11.623 121.862 11.5307 121.661 11.4313C121.474 11.3319 121.338 11.2184 121.252 11.0906C121.166 10.9628 121.122 10.8209 121.122 10.6647C121.122 10.3666 121.237 10.1324 121.467 9.96204C121.711 9.79166 122.041 9.70647 122.458 9.70647C123.032 9.70647 123.542 9.85555 123.987 10.1537C124.446 10.4376 124.762 10.8209 124.934 11.3035L127.325 10.1962C126.966 9.2309 126.348 8.48561 125.473 7.96035C124.611 7.42085 123.606 7.15112 122.458 7.15112C121.582 7.15112 120.807 7.3073 120.132 7.61963C119.457 7.91772 118.933 8.33653 118.56 8.87598C118.186 9.41544 118 10.0472 118 10.7712C118 11.5946 118.258 12.3115 118.775 12.922C119.292 13.5182 120.031 13.9512 120.993 14.2209L122.996 14.7746C123.254 14.8456 123.47 14.9307 123.642 15.0301C123.814 15.1295 123.943 15.243 124.03 15.3708C124.116 15.4844 124.159 15.6264 124.159 15.7967C124.159 16.1233 124.037 16.3788 123.793 16.5633C123.549 16.7479 123.197 16.8402 122.738 16.8402C122.106 16.8402 121.532 16.6627 121.015 16.3078C120.498 15.9529 120.089 15.4631 119.787 14.8385L117.418 15.9458C117.763 16.9679 118.409 17.7842 119.357 18.3946Z" fill="white"/>
<path d="M140.812 7.40665H143.827V8.81116C144.048 8.38622 144.356 8.04583 144.753 7.78997C145.414 7.3641 146.203 7.15112 147.122 7.15112C148.098 7.15112 148.953 7.39955 149.685 7.89646C150.12 8.178 150.46 8.5175 150.705 8.91501C151.017 8.46524 151.387 8.10441 151.817 7.83256C152.534 7.37829 153.375 7.15112 154.336 7.15112C155.183 7.15112 155.93 7.3357 156.576 7.70482C157.236 8.0739 157.753 8.59206 158.126 9.2593C158.5 9.91231 158.687 10.6789 158.687 11.5591V19.0335H155.456V12.2405C155.456 11.7863 155.37 11.3958 155.198 11.0693C155.04 10.7428 154.81 10.4873 154.509 10.3027C154.207 10.1182 153.841 10.0259 153.41 10.0259C152.994 10.0259 152.628 10.1182 152.312 10.3027C152.01 10.4873 151.774 10.7428 151.601 11.0693C151.444 11.3958 151.365 11.7863 151.365 12.2405V19.0335H148.134V12.2405C148.134 11.7863 148.048 11.3958 147.876 11.0693C147.718 10.7428 147.488 10.4873 147.187 10.3027C146.885 10.1182 146.519 10.0259 146.088 10.0259C145.672 10.0259 145.306 10.1182 144.99 10.3027C144.689 10.4873 144.452 10.7428 144.279 11.0693C144.121 11.3958 144.042 11.7863 144.042 12.2405V19.0335H140.812V7.40665Z" fill="white"/>
<path d="M132.787 19.289C131.84 19.289 131.028 19.0902 130.354 18.6927C129.693 18.281 129.191 17.7132 128.846 16.9892C128.502 16.2651 128.33 15.4205 128.33 14.4551V7.40662H131.56V14.1996C131.56 14.6397 131.646 15.0301 131.818 15.3708C132.005 15.6973 132.263 15.9528 132.594 16.1374C132.924 16.322 133.297 16.4142 133.713 16.4142C134.144 16.4142 134.517 16.322 134.833 16.1374C135.164 15.9528 135.415 15.6973 135.587 15.3708C135.774 15.0301 135.867 14.6397 135.867 14.1996V7.40662H139.097V19.0334H136.082V17.6185C135.808 18.129 135.421 18.5226 134.919 18.7992C134.316 19.1257 133.606 19.289 132.787 19.289Z" fill="white"/>
<path fill-rule="evenodd" clip-rule="evenodd" d="M91.7919 19.289C90.6289 19.289 89.5663 19.0264 88.6044 18.5011C87.6568 17.9759 86.896 17.259 86.3217 16.3503C85.762 15.4276 85.4819 14.3842 85.4819 13.22C85.4819 12.0418 85.762 10.9984 86.3217 10.0898C86.896 9.18121 87.6568 8.46427 88.6044 7.93901C89.5663 7.41375 90.6289 7.15112 91.7919 7.15112C92.9546 7.15112 94.01 7.41375 94.9577 7.93901C95.9049 8.46427 96.6589 9.18121 97.2186 10.0898C97.793 10.9984 98.0801 12.0418 98.0801 13.22C98.0801 14.3842 97.793 15.4276 97.2186 16.3503C96.6589 17.259 95.9049 17.9759 94.9577 18.5011C94.01 19.0264 92.9546 19.289 91.7919 19.289ZM91.7919 16.4142C92.3806 16.4142 92.8903 16.2794 93.3207 16.0096C93.7657 15.7399 94.1104 15.3637 94.3544 14.881C94.613 14.3984 94.7423 13.8447 94.7423 13.22C94.7423 12.5954 94.613 12.0489 94.3544 11.5804C94.1104 11.0977 93.7657 10.7215 93.3207 10.4518C92.8903 10.1678 92.3806 10.0259 91.7919 10.0259C91.2033 10.0259 90.6865 10.1678 90.2414 10.4518C89.796 10.7215 89.4445 11.0977 89.1859 11.5804C88.942 12.0489 88.8198 12.5954 88.8198 13.22C88.8198 13.8447 88.942 14.3984 89.1859 14.881C89.4445 15.3637 89.796 15.7399 90.2414 16.0096C90.6865 16.2794 91.2033 16.4142 91.7919 16.4142Z" fill="white"/>
<path fill-rule="evenodd" clip-rule="evenodd" d="M75.8894 23.2711C76.6644 23.5692 77.5045 23.7183 78.4089 23.7183C79.543 23.7183 80.541 23.4911 81.4025 23.0368C82.2783 22.5826 82.9673 21.9508 83.4699 21.1416C83.9721 20.3466 84.2235 19.4381 84.2235 18.4159V7.40665H81.2085V8.62785C80.8537 8.21625 80.4519 7.89437 80.0027 7.66219C79.3708 7.32146 78.6315 7.15112 77.7842 7.15112C76.7077 7.15112 75.7458 7.39246 74.8985 7.87516C74.0517 8.35782 73.3841 9.02507 72.8958 9.87685C72.4075 10.7144 72.1636 11.6798 72.1636 12.7729C72.1636 13.866 72.4075 14.8456 72.8958 15.7115C73.3841 16.5633 74.0588 17.2376 74.9203 17.7345C75.7815 18.2172 76.7577 18.4585 77.8489 18.4585C78.6961 18.4585 79.4355 18.3024 80.067 17.99C80.4094 17.813 80.7184 17.5881 80.9932 17.3152V18.4159C80.9932 18.9128 80.8856 19.3458 80.6703 19.7149C80.4692 20.084 80.1748 20.3608 79.7873 20.5454C79.3994 20.7441 78.9401 20.8435 78.4089 20.8435C77.7342 20.8435 77.1527 20.6874 76.6644 20.375C76.1765 20.0627 75.8533 19.6368 75.6954 19.0974L72.7018 20.1408C72.9462 20.8648 73.3409 21.4894 73.8866 22.0147C74.4463 22.5542 75.1139 22.973 75.8894 23.2711ZM79.7227 15.2217C79.3205 15.4489 78.8468 15.5625 78.3011 15.5625C77.7556 15.5625 77.2674 15.4489 76.837 15.2217C76.4205 14.9804 76.0901 14.6539 75.8461 14.2422C75.6165 13.8305 75.5014 13.3549 75.5014 12.8155C75.5014 12.2618 75.6165 11.7792 75.8461 11.3674C76.0901 10.9416 76.4205 10.615 76.837 10.3879C77.2674 10.1466 77.7556 10.0259 78.3011 10.0259C78.8326 10.0259 79.299 10.1466 79.7009 10.3879C80.1031 10.615 80.4188 10.9416 80.6485 11.3674C80.8785 11.7792 80.9932 12.2618 80.9932 12.8155C80.9932 13.3691 80.8785 13.8518 80.6485 14.2635C80.4331 14.6752 80.1245 14.9946 79.7227 15.2217Z" fill="white"/>
<path fill-rule="evenodd" clip-rule="evenodd" d="M65.0919 19.289C63.9289 19.289 62.8666 19.0264 61.9047 18.5011C60.9571 17.9759 60.1963 17.259 59.622 16.3503C59.0619 15.4276 58.7822 14.3842 58.7822 13.22C58.7822 12.0418 59.0619 10.9984 59.622 10.0898C60.1963 9.18121 60.9571 8.46427 61.9047 7.93901C62.8666 7.41375 63.9289 7.15112 65.0919 7.15112C66.2549 7.15112 67.31 7.41375 68.2576 7.93901C69.2052 8.46427 69.9588 9.18121 70.5189 10.0898C71.0933 10.9984 71.3804 12.0418 71.3804 13.22C71.3804 14.3842 71.0933 15.4276 70.5189 16.3503C69.9588 17.259 69.2052 17.9759 68.2576 18.5011C67.31 19.0264 66.2549 19.289 65.0919 19.289ZM65.0919 16.4142C65.6805 16.4142 66.1902 16.2794 66.621 16.0096C67.066 15.7399 67.4107 15.3637 67.6547 14.881C67.9133 14.3984 68.0422 13.8447 68.0422 13.22C68.0422 12.5954 67.9133 12.0489 67.6547 11.5804C67.4107 11.0977 67.066 10.7215 66.621 10.4518C66.1902 10.1678 65.6805 10.0259 65.0919 10.0259C64.5032 10.0259 63.9864 10.1678 63.5413 10.4518C63.0963 10.7215 62.7444 11.0977 62.4862 11.5804C62.2423 12.0489 62.1201 12.5954 62.1201 13.22C62.1201 13.8447 62.2423 14.3984 62.4862 14.881C62.7444 15.3637 63.0963 15.7399 63.5413 16.0096C63.9864 16.2794 64.5032 16.4142 65.0919 16.4142Z" fill="white"/>
<path fill-rule="evenodd" clip-rule="evenodd" d="M83.4571 38.2032C82.555 38.2032 81.743 37.9891 81.0213 37.561C80.2996 37.1209 79.7283 36.5262 79.3073 35.7769C78.8983 35.0157 78.6938 34.1594 78.6938 33.2079C78.6938 32.2445 78.8983 31.3881 79.3073 30.6388C79.7283 29.8895 80.2936 29.3008 81.0033 28.8726C81.725 28.4325 82.5429 28.2125 83.4571 28.2125C84.287 28.2125 85.0268 28.3909 85.6763 28.7477C86.2082 29.0398 86.6472 29.4156 86.9934 29.8751V24.4838H88.3466V37.9891H86.9934V36.4309C86.6694 36.9375 86.2364 37.3439 85.6944 37.6502C85.0328 38.0189 84.287 38.2032 83.4571 38.2032ZM83.5293 36.8652C84.1788 36.8652 84.7622 36.7046 85.2794 36.3835C85.8086 36.0624 86.2236 35.6283 86.5243 35.0811C86.8371 34.5221 86.9934 33.8977 86.9934 33.2079C86.9934 32.518 86.8371 31.8996 86.5243 31.3524C86.2236 30.7934 85.8086 30.3534 85.2794 30.0322C84.7622 29.7111 84.1788 29.5505 83.5293 29.5505C82.8917 29.5505 82.3144 29.7111 81.7972 30.0322C81.2799 30.3534 80.871 30.7875 80.5703 31.3346C80.2816 31.8817 80.1373 32.5061 80.1373 33.2079C80.1373 33.8977 80.2816 34.5221 80.5703 35.0811C80.871 35.6283 81.2739 36.0624 81.7791 36.3835C82.2963 36.7046 82.8797 36.8652 83.5293 36.8652Z" fill="#AAAAAA"/>
<path fill-rule="evenodd" clip-rule="evenodd" d="M92.5325 37.561C93.2663 37.9892 94.0842 38.2033 94.9863 38.2033C95.6479 38.2033 96.2493 38.0962 96.7906 37.8822C97.3439 37.6562 97.819 37.3648 98.2159 37.008C98.6129 36.6393 98.9076 36.2408 99.1 35.8127L97.9453 35.2061C97.6446 35.7056 97.2537 36.1219 96.7725 36.4549C96.2914 36.788 95.696 36.9545 94.9863 36.9545C94.3729 36.9545 93.7955 36.7999 93.2542 36.4906C92.725 36.1814 92.304 35.7473 91.9913 35.1882C91.7484 34.727 91.6233 34.2037 91.6158 33.6183H99.2263C99.2504 33.4636 99.2684 33.315 99.2805 33.1722C99.285 33.1151 99.2884 33.0604 99.2914 33.0081C99.2932 32.972 99.2947 32.9371 99.2959 32.9033C99.297 32.8782 99.2974 32.8537 99.2978 32.83C99.2981 32.8067 99.2985 32.784 99.2985 32.7619C99.2985 32.191 99.1963 31.6379 98.9918 31.1027C98.7873 30.5556 98.4926 30.068 98.1077 29.6398C97.7228 29.1997 97.2537 28.8548 96.7004 28.605C96.1591 28.3434 95.5396 28.2125 94.842 28.2125C93.9639 28.2125 93.17 28.4266 92.4604 28.8548C91.7627 29.283 91.2094 29.8717 90.8005 30.621C90.3915 31.3584 90.187 32.2088 90.187 33.1722C90.187 34.1356 90.3975 34.9979 90.8185 35.7591C91.2395 36.5203 91.8108 37.121 92.5325 37.561ZM91.6372 32.3694C91.6819 31.9476 91.7939 31.567 91.9732 31.2276C92.2619 30.6686 92.6588 30.2345 93.164 29.9252C93.6813 29.616 94.2406 29.4614 94.842 29.4614C95.4434 29.4614 95.9847 29.616 96.4658 29.9252C96.947 30.2226 97.3138 30.6329 97.5664 31.1562C97.7566 31.5238 97.8502 31.9282 97.848 32.3694H91.6372Z" fill="#AAAAAA"/>
<path d="M101.143 28.4266H102.496V29.5915C102.742 29.2151 103.061 28.9101 103.452 28.6764C103.981 28.3671 104.559 28.2125 105.184 28.2125C105.93 28.2125 106.603 28.4207 107.205 28.8369C107.67 29.1588 108.03 29.5552 108.287 30.0262C108.535 29.5081 108.89 29.0998 109.352 28.8013C109.953 28.4088 110.615 28.2125 111.337 28.2125C111.986 28.2125 112.582 28.3671 113.123 28.6764C113.676 28.9856 114.115 29.4138 114.44 29.9609C114.777 30.4961 114.945 31.1027 114.945 31.7807V37.9892H113.592V32.298C113.592 31.7153 113.484 31.2217 113.267 30.8173C113.063 30.4129 112.78 30.1036 112.419 29.8896C112.058 29.6636 111.643 29.5506 111.174 29.5506C110.717 29.5506 110.302 29.6636 109.929 29.8896C109.556 30.1036 109.262 30.4188 109.045 30.8351C108.829 31.2395 108.72 31.7271 108.72 32.298V37.9892H107.367V32.298C107.367 31.7153 107.259 31.2217 107.042 30.8173C106.838 30.4129 106.555 30.1036 106.194 29.8896C105.834 29.6636 105.419 29.5506 104.95 29.5506C104.48 29.5506 104.059 29.6636 103.687 29.8896C103.326 30.1036 103.037 30.4188 102.821 30.8351C102.604 31.2395 102.496 31.7271 102.496 32.298V37.9892H101.143V28.4266Z" fill="#AAAAAA"/>
<path d="M117.01 41.9142C116.817 41.9142 116.619 41.8963 116.414 41.8607C116.222 41.8369 116.03 41.7893 115.837 41.7179V40.4691C115.957 40.481 116.108 40.4988 116.288 40.5226C116.481 40.5583 116.673 40.5761 116.866 40.5761C117.455 40.5761 117.906 40.4512 118.219 40.2015C118.531 39.9636 118.838 39.4997 119.139 38.8099L119.488 37.9966L115.621 28.4266H117.082L120.248 36.3203L123.397 28.4266H124.894L120.474 39.2024C120.282 39.6662 120.035 40.1063 119.734 40.5226C119.446 40.9389 119.079 41.2719 118.634 41.5217C118.189 41.7833 117.647 41.9142 117.01 41.9142Z" fill="#AAAAAA"/>
<path fill-rule="evenodd" clip-rule="evenodd" d="M70.4614 37.8643C70.9426 38.0903 71.4899 38.2033 72.1037 38.2033C72.669 38.2033 73.1862 38.12 73.655 37.9535C74.1361 37.7751 74.5511 37.5432 74.8999 37.2577C75.1416 37.0587 75.3401 36.8463 75.4953 36.6206V37.9892H76.8489V31.4239C76.8489 30.7935 76.6925 30.2404 76.3794 29.7647C76.0787 29.277 75.6517 28.8964 75.0988 28.6229C74.5571 28.3493 73.932 28.2125 73.222 28.2125C72.6811 28.2125 72.1574 28.3136 71.6522 28.5158C71.1471 28.7061 70.696 28.9678 70.2991 29.3008C69.9145 29.6338 69.6315 30.0025 69.4511 30.4069L70.6783 31.067C70.8945 30.6032 71.2252 30.2285 71.6707 29.9431C72.1153 29.6457 72.6326 29.4971 73.222 29.4971C73.8955 29.4971 74.4432 29.6755 74.8642 30.0323C75.2848 30.3891 75.4953 30.8529 75.4953 31.4239V31.9174L71.9951 32.4943C71.2854 32.6132 70.702 32.8154 70.2453 33.1009C69.7879 33.3863 69.4511 33.7372 69.2345 34.1535C69.0184 34.5579 68.9102 35.0098 68.9102 35.5094C68.9102 36.0327 69.0481 36.4966 69.3248 36.9009C69.6018 37.3053 69.9803 37.6264 70.4614 37.8643ZM75.4953 33.1306V33.8502C75.4953 34.433 75.3574 34.9623 75.0803 35.438C74.8037 35.9138 74.4188 36.2944 73.926 36.5798C73.4328 36.8534 72.8555 36.9902 72.1935 36.9902C71.6522 36.9902 71.2072 36.8415 70.8584 36.5441C70.522 36.2468 70.3536 35.884 70.3536 35.4559C70.3536 35.0158 70.5039 34.6352 70.8042 34.314C71.117 33.9929 71.6222 33.7729 72.3198 33.6539L75.4953 33.1306Z" fill="#AAAAAA"/>
<path d="M63.6264 38.2033C62.6762 38.2033 61.8402 37.9833 61.1185 37.5432C60.3968 37.1031 59.8315 36.5085 59.4225 35.7591C59.0136 34.9979 58.8091 34.1416 58.8091 33.1901C58.8091 32.2386 59.0136 31.3882 59.4225 30.6389C59.8315 29.8896 60.3968 29.3008 61.1185 28.8726C61.8402 28.4326 62.6762 28.2125 63.6264 28.2125C64.2279 28.2125 64.7932 28.3196 65.3224 28.5337C65.8517 28.7477 66.3208 29.0391 66.7298 29.4079C67.1387 29.7647 67.4455 30.181 67.6499 30.6567L66.423 31.2811C66.1825 30.7697 65.8156 30.3534 65.3224 30.0323C64.8293 29.7111 64.264 29.5506 63.6264 29.5506C62.9889 29.5506 62.4116 29.7111 61.8944 30.0323C61.3892 30.3415 60.9862 30.7756 60.6855 31.3346C60.3968 31.8818 60.2525 32.5062 60.2525 33.2079C60.2525 33.8978 60.3968 34.5222 60.6855 35.0812C60.9862 35.6283 61.3892 36.0624 61.8944 36.3836C62.4116 36.7047 62.9889 36.8653 63.6264 36.8653C64.264 36.8653 64.8233 36.7047 65.3044 36.3836C65.7976 36.0624 66.1704 35.6343 66.423 35.099L67.6499 35.7591C67.4455 36.223 67.1387 36.6393 66.7298 37.008C66.3208 37.3767 65.8517 37.6681 65.3224 37.8822C64.7932 38.0962 64.2279 38.2033 63.6264 38.2033Z" fill="#AAAAAA"/>
<path fill-rule="evenodd" clip-rule="evenodd" d="M52.0462 24.6979L47.1387 37.9892H48.6542L49.827 34.7422H55.8352L56.9899 37.9892H58.5055L53.5979 24.6979H52.0462ZM55.33 33.4041H50.2961L52.8213 26.3732L55.33 33.4041Z" fill="#AAAAAA"/>
</g>
<defs>
<clipPath id="clip0_37_22">
<rect width="159" height="42" fill="white"/>
</clipPath>
</defs>
</svg>
